
<svg version="1.0" xmlns="http://www.w3.org/2000/svg"
 width="64.000000pt" height="64.000000pt" viewBox="0 0 64.000000 64.000000"
 preserveAspectRatio="xMidYMid meet">

<g transform="translate(0.000000,64.000000) scale(0.100000,-0.100000)"
fill="#bc986a" stroke="none">
<path d="M215 555 c-40 -39 -33 -69 32 -136 31 -32 64 -59 73 -59 9 0 42 27
73 59 63 66 70 92 36 135 -23 29 -54 33 -87 10 -20 -14 -24 -14 -44 0 -32 22
-55 20 -83 -9z m77 -12 c10 -9 18 -22 18 -30 0 -7 5 -13 10 -13 6 0 10 5 10
12 0 18 31 48 50 48 26 0 53 -36 47 -62 -4 -13 -29 -45 -57 -73 l-50 -49 -50
49 c-59 58 -70 87 -45 115 22 24 43 25 67 3z"/>
<path d="M97 464 c-4 -4 -7 -43 -7 -86 0 -75 1 -79 35 -117 39 -43 42 -51 20
-51 -20 0 -35 -40 -35 -91 l0 -39 95 0 95 0 0 40 c0 46 -18 90 -37 90 -9 0
-13 13 -13 40 0 32 -7 48 -36 80 -20 22 -42 40 -50 40 -8 0 -14 16 -16 48 -2
38 -7 48 -23 50 -12 2 -24 0 -28 -4z m33 -72 c0 -52 3 -62 30 -87 21 -20 30
-24 30 -13 0 8 -9 23 -20 33 -11 10 -18 21 -15 23 3 3 21 -10 40 -28 28 -27
35 -42 35 -72 0 -34 -3 -38 -25 -38 -14 0 -25 4 -25 10 0 5 -16 27 -35 49 -33
36 -35 42 -35 110 0 41 4 71 10 71 6 0 10 -26 10 -58z m140 -212 c0 -6 -28
-10 -65 -10 -37 0 -65 4 -65 10 0 6 28 10 65 10 37 0 65 -4 65 -10z m10 -55
c0 -24 -2 -25 -75 -25 -73 0 -75 1 -75 25 0 24 2 25 75 25 73 0 75 -1 75 -25z"/>
<path d="M497 464 c-4 -4 -7 -27 -7 -51 0 -30 -4 -43 -14 -43 -22 0 -86 -77
-86 -105 0 -14 5 -25 10 -25 6 0 10 10 10 23 0 23 64 96 75 85 3 -2 -4 -13
-15 -23 -11 -10 -20 -25 -20 -33 0 -11 9 -7 30 13 27 25 30 35 30 87 0 32 4
58 10 58 6 0 10 -30 10 -71 0 -68 -2 -74 -35 -110 -19 -22 -35 -44 -35 -49 0
-6 -22 -10 -48 -10 -43 0 -50 -3 -60 -25 -7 -14 -12 -44 -12 -65 l0 -40 95 0
95 0 0 39 c0 51 -15 91 -35 91 -22 0 -19 8 20 52 36 39 36 39 33 121 -3 74 -5
82 -23 85 -12 2 -24 0 -28 -4z m3 -284 c0 -6 -28 -10 -65 -10 -37 0 -65 4 -65
10 0 6 28 10 65 10 37 0 65 -4 65 -10z m10 -55 c0 -24 -2 -25 -75 -25 -73 0
-75 1 -75 25 0 24 2 25 75 25 73 0 75 -1 75 -25z"/>
</g>
</svg>
