<?xml version="1.0" standalone="no"?>
<!DOCTYPE svg PUBLIC "-//W3C//DTD SVG 20010904//EN"
 "http://www.w3.org/TR/2001/REC-SVG-20010904/DTD/svg10.dtd">
<svg version="1.0" xmlns="http://www.w3.org/2000/svg"
 width="512.000000pt" height="512.000000pt" viewBox="0 0 512.000000 512.000000"
 preserveAspectRatio="xMidYMid meet">

<g transform="translate(0.000000,512.000000) scale(0.100000,-0.100000)"
fill="#bc986a" stroke="none">
<path d="M2895 4073 c-206 -18 -552 -132 -585 -192 -17 -33 -11 -71 15 -96 30
-31 63 -31 123 -1 119 60 362 126 466 126 l46 0 0 -90 c0 -83 2 -93 25 -115
15 -16 36 -25 55 -25 19 0 40 9 55 25 23 22 25 32 25 116 l0 92 78 -7 c132
-11 331 -70 465 -138 61 -30 197 -119 240 -158 l38 -33 -66 -67 c-75 -78 -84
-112 -40 -155 43 -44 77 -35 155 41 l69 66 48 -62 c152 -194 260 -459 280
-687 l6 -73 -92 0 c-84 0 -94 -2 -116 -25 -33 -32 -33 -78 0 -110 22 -23 32
-25 115 -25 l90 0 0 -39 c0 -59 -27 -201 -56 -293 -50 -157 -140 -325 -237
-441 l-40 -48 -67 66 c-78 75 -112 84 -155 40 -44 -43 -35 -77 41 -155 l66
-68 -54 -43 c-112 -89 -271 -175 -408 -222 -90 -31 -262 -67 -319 -67 l-41 0
0 90 c0 83 -2 93 -25 115 -32 33 -78 33 -110 0 -23 -22 -25 -32 -25 -118 l0
-93 -71 7 c-142 16 -285 55 -417 115 -89 40 -115 42 -147 9 -27 -26 -32 -63
-14 -97 14 -26 148 -88 274 -127 170 -52 262 -65 450 -65 270 0 465 47 705
170 290 149 516 378 659 669 33 66 68 149 80 185 227 712 -56 1451 -696 1816
-249 142 -589 214 -888 187z"/>
<path d="M1545 3575 c-16 -15 -25 -36 -25 -55 0 -19 9 -40 25 -55 l24 -25 459
0 c450 0 460 0 486 21 37 29 37 89 0 118 -26 21 -36 21 -486 21 l-459 0 -24
-25z"/>
<path d="M3414 3049 l-211 -211 -53 16 c-162 48 -330 -15 -395 -149 -38 -77
-44 -169 -17 -250 l20 -59 -39 -43 c-47 -51 -53 -97 -16 -131 37 -35 80 -29
131 19 l44 40 58 -17 c123 -35 272 1 345 83 73 84 98 210 61 318 l-21 60 210
211 c193 194 209 213 209 245 0 46 -34 79 -80 79 -31 0 -54 -20 -246 -211z
m-295 -357 c55 -27 76 -64 76 -132 0 -68 -21 -105 -76 -132 -70 -36 -169 -15
-213 45 -16 21 -21 44 -21 87 0 43 5 66 21 87 28 38 80 63 134 63 25 0 60 -8
79 -18z"/>
<path d="M1065 3095 c-16 -15 -25 -36 -25 -55 0 -19 9 -40 25 -55 l24 -25 644
0 c632 0 644 0 665 20 12 11 24 31 28 44 7 28 -18 81 -41 90 -9 3 -304 6 -656
6 l-640 0 -24 -25z"/>
<path d="M585 2615 c-16 -15 -25 -36 -25 -55 0 -19 9 -40 25 -55 l24 -25 831
0 831 0 24 25 c33 32 33 78 0 110 l-24 25 -831 0 -831 0 -24 -25z"/>
<path d="M1065 2135 c-16 -15 -25 -36 -25 -55 0 -19 9 -40 25 -55 l24 -25 644
0 c632 0 644 0 665 20 12 11 24 31 28 44 7 28 -18 81 -41 90 -9 3 -304 6 -656
6 l-640 0 -24 -25z"/>
<path d="M1545 1655 c-16 -15 -25 -36 -25 -55 0 -19 9 -40 25 -55 l24 -25 459
0 c450 0 460 0 486 21 37 29 37 89 0 118 -26 21 -36 21 -486 21 l-459 0 -24
-25z"/>
</g>
</svg>
