<svg width="24" height="24" viewBox="0 0 24 24" fill="none" xmlns="http://www.w3.org/2000/svg">
<path d="M6.83071 17.319L6.83048 17.3188C6.47953 17.0428 6.14204 16.5924 5.89182 16.0664C5.64198 15.5412 5.5 14.9845 5.5 14.5185V8.6378C5.5 8.14079 5.67491 7.60631 5.9773 7.14555C6.28028 6.6839 6.6881 6.33105 7.11641 6.16282L7.1174 6.16243L10.8568 4.68451C10.8569 4.68448 10.857 4.68445 10.857 4.68441C11.1538 4.56751 11.5654 4.5 12 4.5C12.4345 4.5 12.8461 4.56748 13.1428 4.68434C13.1428 4.68435 13.1428 4.68435 13.1428 4.68436C13.1429 4.68441 13.1431 4.68446 13.1432 4.68451L16.8826 6.16243L16.8836 6.16282C17.3119 6.33105 17.7197 6.6839 18.0227 7.14555C18.3251 7.60631 18.5 8.14079 18.5 8.6378V14.5106C18.5 14.9808 18.3579 15.5375 18.1083 16.0611C17.8584 16.5856 17.521 17.0345 17.1695 17.3109L17.1693 17.3111L13.9466 19.8483L13.9466 19.8483L13.9404 19.8533C13.4191 20.2772 12.7254 20.5 12.0075 20.5C11.2909 20.5 10.593 20.2778 10.0527 19.8557C10.0525 19.8555 10.0523 19.8553 10.052 19.8552L6.83071 17.319ZM10.8876 4.86857L10.8869 4.86884L7.14705 6.34693L7.14632 6.34722C6.7054 6.52228 6.33261 6.88257 6.07418 7.2769C5.81453 7.67309 5.63169 8.16217 5.63169 8.64571V14.5185C5.63169 14.9914 5.78547 15.5167 6.00143 15.9712C6.21668 16.4241 6.52426 16.8708 6.88659 17.1562L6.88663 17.1562L10.109 19.6932C10.6441 20.1152 11.3384 20.3104 12.0084 20.3104C12.6786 20.3104 13.3738 20.1152 13.9118 19.6945L13.9132 19.6934L17.1359 17.1562L17.1367 17.1555C17.5017 16.8668 17.8092 16.4209 18.0241 15.9678C18.2395 15.5134 18.3908 14.9904 18.3908 14.5185V8.6378C18.3908 8.15723 18.2073 7.67006 17.9483 7.27493C17.6902 6.88112 17.3189 6.52057 16.8811 6.34131L16.8811 6.34127L16.8754 6.33902L13.1356 4.86093L13.1356 4.86084L13.1262 4.85734C12.797 4.7348 12.3878 4.68355 12.007 4.68465C11.627 4.68574 11.2166 4.7391 10.8876 4.86857Z" fill="#bc986a" stroke="#bc986a"/>
<path d="M10.9102 14C10.7562 14 10.6023 13.9517 10.4808 13.8482L9.17623 12.7374C8.94126 12.5373 8.94126 12.2061 9.17623 12.006C9.41121 11.806 9.80013 11.806 10.0351 12.006L10.9102 12.7512L13.9649 10.1501C14.1999 9.94998 14.5888 9.94998 14.8238 10.1501C15.0587 10.3502 15.0587 10.6813 14.8238 10.8814L11.3396 13.8482C11.2181 13.9517 11.0641 14 10.9102 14Z" fill="#bc986a"/>
</svg>
